<svg width="119" height="46" viewBox="0 0 119 46" fill="none" xmlns="http://www.w3.org/2000/svg">
<path d="M32.28 38.064V46H2.072V40.944L15.192 27.504C20.184 22.384 22.296 19.696 22.296 15.92C22.296 12.4 19.928 10.032 16.152 10.032C11.992 10.032 9.432 12.656 9.432 16.88H0.792C0.792 8.24 7.32 2.096 16.6 2.096C25.24 2.096 31.576 7.536 31.576 14.832C31.576 20.08 29.656 23.408 22.104 31.024L15.576 38.064H32.28ZM72.5235 37.488H66.4435V46H57.6115V37.488H37.0675V30.896L59.4035 2.736H66.4435V29.744H72.5235V37.488ZM46.7955 29.744H57.6115V15.472L46.7955 29.744ZM90.554 46H80.826V0.0479965H90.554V20.272L107.258 0.0479965H118.394L100.154 22.064L118.906 46H106.938L90.554 25.008V46Z" fill="#B0EF9A"/>
</svg>
