<svg width="82" height="34" viewBox="0 0 82 34" fill="none" xmlns="http://www.w3.org/2000/svg">
<path d="M36.85 21.6C36.85 24.975 34.35 27 30.175 27H22.75V9.05H29.95C33.875 9.05 36.325 10.775 36.325 13.9C36.325 15.475 35.5 16.7 34 17.6C35.825 18.375 36.85 19.7 36.85 21.6ZM29.575 12.775H27.025V15.875H29.575C31.15 15.875 31.875 15.275 31.875 14.3C31.875 13.375 31.15 12.775 29.575 12.775ZM29.8 19.6H27.025V23.275H29.8C31.575 23.275 32.4 22.575 32.4 21.425C32.4 20.325 31.575 19.6 29.8 19.6ZM43.1801 27H38.8551V9.05H43.1801V27ZM53.859 27V25.7C52.909 26.775 51.734 27.25 50.009 27.25C47.209 27.25 45.334 25.575 45.334 23.025C45.334 20.4 47.459 18.975 51.309 18.975C52.034 18.975 52.709 19.025 53.284 19.125V18.475C53.284 17.3 52.609 16.65 51.409 16.65C50.234 16.65 49.534 17.3 49.384 18.475H45.534C45.784 15.35 48.109 13.3 51.434 13.3C55.134 13.3 57.309 15.3 57.309 18.7V27H53.859ZM49.359 22.9C49.359 23.775 49.959 24.3 51.009 24.3C52.434 24.3 53.284 23.625 53.284 22.525V21.675C52.634 21.55 52.134 21.5 51.584 21.5C50.134 21.5 49.359 21.975 49.359 22.9ZM59.1232 20.275C59.1232 16.425 61.4982 13.3 65.1232 13.3C66.6982 13.3 68.0232 13.925 69.1232 15.075V13.55H73.0482V31.825H68.7732V25.75C67.7232 26.75 66.5232 27.25 65.1232 27.25C61.4982 27.25 59.1232 24.175 59.1232 20.275ZM63.5732 20.275C63.5732 22.425 64.8482 23.4 66.1482 23.4C67.4482 23.4 68.7232 22.45 68.7232 20.3C68.7232 18.175 67.4732 17.15 66.1482 17.15C64.8482 17.15 63.5732 18.175 63.5732 20.275ZM80.4674 24.4C80.4674 26 79.3674 27.125 77.7674 27.125C76.1674 27.125 75.0424 26 75.0424 24.4C75.0424 22.775 76.1674 21.65 77.7674 21.65C79.3674 21.65 80.4674 22.775 80.4674 24.4Z" fill="white"/>
<path d="M8.5 27.0182L15.8612 16.8182H1.13878L8.5 27.0182Z" fill="#D9D9D9"/>
<path d="M8.61037 6L14.767 14.5309H2.45372L8.61037 6Z" fill="#D9D9D9"/>
</svg>
