<svg width="40" height="25" viewBox="0 0 40 25" fill="none" xmlns="http://www.w3.org/2000/svg">
<path fill-rule="evenodd" clip-rule="evenodd" d="M10.0001 0H30.0001C31.9892 0 33.8969 0.790177 35.3034 2.1967C36.7099 3.60322 37.5001 5.51088 37.5001 7.5V17.5C37.5001 19.4891 36.7099 21.3968 35.3034 22.8033C33.8969 24.2098 31.9892 25 30.0001 25H29.0151C27.5336 25.0003 26.0852 24.5619 24.8526 23.74L22.7726 22.3525C21.9515 21.8054 20.9868 21.5134 20.0001 21.5134C19.0134 21.5134 18.0487 21.8054 17.2276 22.3525L15.1476 23.74C13.915 24.5619 12.4666 25.0003 10.9851 25H10.0001C8.01096 25 6.10331 24.2098 4.69679 22.8033C3.29026 21.3968 2.50009 19.4891 2.50009 17.5V7.5C2.50009 5.51088 3.29026 3.60322 4.69679 2.1967C6.10331 0.790177 8.01096 0 10.0001 0ZM10.0001 2.5C8.674 2.5 7.40223 3.02678 6.46455 3.96447C5.52687 4.90215 5.00009 6.17392 5.00009 7.5V17.5C5.00009 18.8261 5.52687 20.0979 6.46455 21.0355C7.40223 21.9732 8.674 22.5 10.0001 22.5H10.9851C11.9727 22.5002 12.9384 22.2079 13.7601 21.66L15.8401 20.2725C17.072 19.4513 18.5195 19.013 20.0001 19.013C21.4807 19.013 22.9281 19.4513 24.1601 20.2725L26.2401 21.66C27.0618 22.2079 28.0274 22.5002 29.0151 22.5H30.0001C31.3262 22.5 32.5979 21.9732 33.5356 21.0355C34.4733 20.0979 35.0001 18.8261 35.0001 17.5V7.5C35.0001 6.17392 34.4733 4.90215 33.5356 3.96447C32.5979 3.02678 31.3262 2.5 30.0001 2.5H10.0001Z" fill="white"/>
<path d="M0 9.99854H2.5V17.4985H0V9.99854ZM37.5 9.99854H40V17.4985H37.5V9.99854ZM16.25 12.4985C16.5815 12.4985 16.8995 12.6302 17.1339 12.8647C17.3683 13.0991 17.5 13.417 17.5 13.7485C17.5 14.0801 17.3683 14.398 17.1339 14.6324C16.8995 14.8668 16.5815 14.9985 16.25 14.9985H10C9.66848 14.9985 9.35054 14.8668 9.11612 14.6324C8.8817 14.398 8.75 14.0801 8.75 13.7485C8.75 13.417 8.8817 13.0991 9.11612 12.8647C9.35054 12.6302 9.66848 12.4985 10 12.4985H16.25ZM30 12.4985C30.3315 12.4985 30.6495 12.6302 30.8839 12.8647C31.1183 13.0991 31.25 13.417 31.25 13.7485C31.25 14.0801 31.1183 14.398 30.8839 14.6324C30.6495 14.8668 30.3315 14.9985 30 14.9985H23.75C23.4185 14.9985 23.1005 14.8668 22.8661 14.6324C22.6317 14.398 22.5 14.0801 22.5 13.7485C22.5 13.417 22.6317 13.0991 22.8661 12.8647C23.1005 12.6302 23.4185 12.4985 23.75 12.4985H30Z" fill="white"/>
</svg>
