<svg width="193" height="38" viewBox="0 0 193 38" fill="none" xmlns="http://www.w3.org/2000/svg">
<g opacity="0.85">
<path d="M18.6219 0.444303C18.6951 0.275699 18.9342 0.275699 19.0073 0.444304L23.8745 11.6686C23.9049 11.7388 23.9711 11.7869 24.0473 11.7941L36.2263 12.9546C36.4092 12.9721 36.4831 13.1995 36.3453 13.3211L27.1745 21.4186C27.1171 21.4693 27.0919 21.547 27.1085 21.6217L29.7683 33.5633C29.8082 33.7426 29.6148 33.8832 29.4565 33.7897L18.9214 27.57C18.8555 27.5311 18.7737 27.5311 18.7078 27.57L8.17268 33.7897C8.01443 33.8832 7.82099 33.7426 7.86094 33.5633L10.5207 21.6217C10.5374 21.547 10.5121 21.4693 10.4548 21.4186L1.28387 13.3211C1.14611 13.1995 1.22 12.9721 1.40295 12.9546L13.582 11.7941C13.6581 11.7869 13.7243 11.7388 13.7547 11.6686L18.6219 0.444303Z" fill="#FFDA19"/>
<path d="M57.2512 0.444303C57.3243 0.275699 57.5634 0.275699 57.6365 0.444304L62.5037 11.6686C62.5342 11.7388 62.6003 11.7869 62.6765 11.7941L74.8555 12.9546C75.0384 12.9721 75.1123 13.1995 74.9746 13.3211L65.8037 21.4186C65.7463 21.4693 65.7211 21.547 65.7377 21.6217L68.3975 33.5633C68.4374 33.7426 68.244 33.8832 68.0857 33.7897L57.5506 27.57C57.4847 27.5311 57.4029 27.5311 57.3371 27.57L46.8019 33.7897C46.6436 33.8832 46.4502 33.7426 46.4902 33.5633L49.15 21.6217C49.1666 21.547 49.1413 21.4693 49.084 21.4186L39.9131 13.3211C39.7753 13.1995 39.8492 12.9721 40.0322 12.9546L52.2112 11.7941C52.2873 11.7869 52.3535 11.7388 52.3839 11.6686L57.2512 0.444303Z" fill="#FFDA19"/>
<path d="M95.8804 0.444303C95.9535 0.275699 96.1926 0.275699 96.2657 0.444304L101.133 11.6686C101.163 11.7388 101.23 11.7869 101.306 11.7941L113.485 12.9546C113.668 12.9721 113.742 13.1995 113.604 13.3211L104.433 21.4186C104.376 21.4693 104.35 21.547 104.367 21.6217L107.027 33.5633C107.067 33.7426 106.873 33.8832 106.715 33.7897L96.1798 27.57C96.1139 27.5311 96.0321 27.5311 95.9663 27.57L85.4311 33.7897C85.2729 33.8832 85.0794 33.7426 85.1194 33.5633L87.7792 21.6217C87.7958 21.547 87.7705 21.4693 87.7132 21.4186L78.5423 13.3211C78.4045 13.1995 78.4784 12.9721 78.6614 12.9546L90.8404 11.7941C90.9165 11.7869 90.9827 11.7388 91.0131 11.6686L95.8804 0.444303Z" fill="#FFDA19"/>
<path d="M134.51 0.444303C134.583 0.275699 134.822 0.275699 134.895 0.444304L139.762 11.6686C139.793 11.7388 139.859 11.7869 139.935 11.7941L152.114 12.9546C152.297 12.9721 152.371 13.1995 152.233 13.3211L143.062 21.4186C143.005 21.4693 142.979 21.547 142.996 21.6217L145.656 33.5633C145.696 33.7426 145.502 33.8832 145.344 33.7897L134.809 27.57C134.743 27.5311 134.661 27.5311 134.595 27.57L124.06 33.7897C123.902 33.8832 123.709 33.7426 123.749 33.5633L126.408 21.6217C126.425 21.547 126.4 21.4693 126.342 21.4186L117.172 13.3211C117.034 13.1995 117.108 12.9721 117.291 12.9546L129.47 11.7941C129.546 11.7869 129.612 11.7388 129.642 11.6686L134.51 0.444303Z" fill="#FFDA19"/>
<path d="M173.139 0.444303C173.212 0.275699 173.451 0.275699 173.524 0.444304L178.391 11.6686C178.422 11.7388 178.488 11.7869 178.564 11.7941L190.743 12.9546C190.926 12.9721 191 13.1995 190.862 13.3211L181.691 21.4186C181.634 21.4693 181.609 21.547 181.625 21.6217L184.285 33.5633C184.325 33.7426 184.132 33.8832 183.973 33.7897L173.438 27.57C173.372 27.5311 173.291 27.5311 173.225 27.57L162.69 33.7897C162.531 33.8832 162.338 33.7426 162.378 33.5633L165.038 21.6217C165.054 21.547 165.029 21.4693 164.972 21.4186L155.801 13.3211C155.663 13.1995 155.737 12.9721 155.92 12.9546L168.099 11.7941C168.175 11.7869 168.241 11.7388 168.272 11.6686L173.139 0.444303Z" fill="#D9D9D9"/>
</g>
</svg>
